<svg xmlns="http://www.w3.org/2000/svg" width="960" height="490" viewBox="0 0 960 490" font-family="Georgia, serif">
<rect width="960" height="490" fill="#fbf8f2"/>
<text x="30" y="40" font-size="22" fill="#1d1b18">Prepared Clay: one material, three preparations, twelve makers</text>
<text x="30" y="64" font-size="13.5" fill="#6b655c">Squares: a blind coder’s closeness of each work to the plain scatter plot (0–3). Only the makers given the plot did not make it.</text>
<text x="30" y="104" font-size="15" fill="#2f5d8a">T · given a table</text>
<text x="30" y="122" font-size="12" fill="#6b655c">mean closeness 1.50</text>
<rect x="30" y="280" width="40" height="40" fill="none" stroke="#d8d1c6" stroke-width="1"/>
<rect x="30" y="234" width="40" height="40" fill="none" stroke="#d8d1c6" stroke-width="1"/>
<rect x="30" y="188" width="40" height="40" fill="none" stroke="#d8d1c6" stroke-width="1"/>
<text x="50" y="342" font-size="13" text-anchor="middle" fill="#1d1b18">m04</text>
<text x="50" y="362" font-size="11.5" text-anchor="middle" fill="#6b655c">other</text>
<text x="50" y="382" font-size="11.5" text-anchor="middle" fill="#9a2b2b">guess P</text>
<text x="50" y="402" font-size="11.5" text-anchor="middle" fill="#6b655c">838 exact</text>
<rect x="102" y="280" width="40" height="40" fill="#2f5d8a" stroke="#2f5d8a" stroke-width="1"/>
<rect x="102" y="234" width="40" height="40" fill="#2f5d8a" stroke="#2f5d8a" stroke-width="1"/>
<rect x="102" y="188" width="40" height="40" fill="none" stroke="#d8d1c6" stroke-width="1"/>
<text x="122" y="342" font-size="13" text-anchor="middle" fill="#1d1b18">m05</text>
<text x="122" y="362" font-size="11.5" text-anchor="middle" fill="#6b655c">XY</text>
<text x="122" y="382" font-size="11.5" text-anchor="middle" fill="#9a2b2b">guess P</text>
<text x="122" y="402" font-size="11.5" text-anchor="middle" fill="#6b655c">838 exact</text>
<rect x="174" y="280" width="40" height="40" fill="#2f5d8a" stroke="#2f5d8a" stroke-width="1"/>
<rect x="174" y="234" width="40" height="40" fill="#2f5d8a" stroke="#2f5d8a" stroke-width="1"/>
<rect x="174" y="188" width="40" height="40" fill="none" stroke="#d8d1c6" stroke-width="1"/>
<text x="194" y="342" font-size="13" text-anchor="middle" fill="#1d1b18">m07</text>
<text x="194" y="362" font-size="11.5" text-anchor="middle" fill="#6b655c">XY</text>
<text x="194" y="382" font-size="11.5" text-anchor="middle" fill="#9a2b2b">guess P</text>
<text x="194" y="402" font-size="11.5" text-anchor="middle" fill="#6b655c">838 exact</text>
<rect x="246" y="280" width="40" height="40" fill="#2f5d8a" stroke="#2f5d8a" stroke-width="1"/>
<rect x="246" y="234" width="40" height="40" fill="#2f5d8a" stroke="#2f5d8a" stroke-width="1"/>
<rect x="246" y="188" width="40" height="40" fill="none" stroke="#d8d1c6" stroke-width="1"/>
<text x="266" y="342" font-size="13" text-anchor="middle" fill="#1d1b18">m11</text>
<text x="266" y="362" font-size="11.5" text-anchor="middle" fill="#6b655c">XY</text>
<text x="266" y="382" font-size="11.5" text-anchor="middle" fill="#2e6b3a">guess T ✓</text>
<text x="266" y="402" font-size="11.5" text-anchor="middle" fill="#6b655c">838 exact</text>
<text x="340" y="104" font-size="15" fill="#8a3b2f">P · given sentences</text>
<text x="340" y="122" font-size="12" fill="#6b655c">mean closeness 1.75</text>
<rect x="340" y="280" width="40" height="40" fill="#8a3b2f" stroke="#8a3b2f" stroke-width="1"/>
<rect x="340" y="234" width="40" height="40" fill="none" stroke="#d8d1c6" stroke-width="1"/>
<rect x="340" y="188" width="40" height="40" fill="none" stroke="#d8d1c6" stroke-width="1"/>
<text x="360" y="342" font-size="13" text-anchor="middle" fill="#1d1b18">m03</text>
<text x="360" y="362" font-size="11.5" text-anchor="middle" fill="#6b655c">other</text>
<text x="360" y="382" font-size="11.5" text-anchor="middle" fill="#9a2b2b">guess T</text>
<text x="360" y="402" font-size="11.5" text-anchor="middle" fill="#6b655c">838 exact</text>
<rect x="412" y="280" width="40" height="40" fill="#8a3b2f" stroke="#8a3b2f" stroke-width="1"/>
<rect x="412" y="234" width="40" height="40" fill="#8a3b2f" stroke="#8a3b2f" stroke-width="1"/>
<rect x="412" y="188" width="40" height="40" fill="none" stroke="#d8d1c6" stroke-width="1"/>
<text x="432" y="342" font-size="13" text-anchor="middle" fill="#1d1b18">m06</text>
<text x="432" y="362" font-size="11.5" text-anchor="middle" fill="#6b655c">XY</text>
<text x="432" y="382" font-size="11.5" text-anchor="middle" fill="#9a2b2b">guess T</text>
<text x="432" y="402" font-size="11.5" text-anchor="middle" fill="#6b655c">838 exact</text>
<rect x="484" y="280" width="40" height="40" fill="#8a3b2f" stroke="#8a3b2f" stroke-width="1"/>
<rect x="484" y="234" width="40" height="40" fill="#8a3b2f" stroke="#8a3b2f" stroke-width="1"/>
<rect x="484" y="188" width="40" height="40" fill="none" stroke="#d8d1c6" stroke-width="1"/>
<text x="504" y="342" font-size="13" text-anchor="middle" fill="#1d1b18">m08</text>
<text x="504" y="362" font-size="11.5" text-anchor="middle" fill="#6b655c">XY</text>
<text x="504" y="382" font-size="11.5" text-anchor="middle" fill="#9a2b2b">guess T</text>
<text x="504" y="402" font-size="11.5" text-anchor="middle" fill="#6b655c">838 exact</text>
<rect x="556" y="280" width="40" height="40" fill="#8a3b2f" stroke="#8a3b2f" stroke-width="1"/>
<rect x="556" y="234" width="40" height="40" fill="#8a3b2f" stroke="#8a3b2f" stroke-width="1"/>
<rect x="556" y="188" width="40" height="40" fill="none" stroke="#d8d1c6" stroke-width="1"/>
<text x="576" y="342" font-size="13" text-anchor="middle" fill="#1d1b18">m12</text>
<text x="576" y="362" font-size="11.5" text-anchor="middle" fill="#6b655c">XY</text>
<text x="576" y="382" font-size="11.5" text-anchor="middle" fill="#9a2b2b">guess T</text>
<text x="576" y="402" font-size="11.5" text-anchor="middle" fill="#6b655c">838 exact</text>
<text x="650" y="104" font-size="15" fill="#4c6b2f">I · given the plot itself</text>
<text x="650" y="122" font-size="12" fill="#6b655c">mean closeness 0.25</text>
<rect x="650" y="280" width="40" height="40" fill="none" stroke="#d8d1c6" stroke-width="1"/>
<rect x="650" y="234" width="40" height="40" fill="none" stroke="#d8d1c6" stroke-width="1"/>
<rect x="650" y="188" width="40" height="40" fill="none" stroke="#d8d1c6" stroke-width="1"/>
<text x="670" y="342" font-size="13" text-anchor="middle" fill="#1d1b18">m01</text>
<text x="670" y="362" font-size="11.5" text-anchor="middle" fill="#6b655c">other</text>
<text x="670" y="382" font-size="11.5" text-anchor="middle" fill="#2e6b3a">guess I ✓</text>
<text x="670" y="402" font-size="11.5" text-anchor="middle" fill="#6b655c">739 exact</text>
<rect x="722" y="280" width="40" height="40" fill="none" stroke="#d8d1c6" stroke-width="1"/>
<rect x="722" y="234" width="40" height="40" fill="none" stroke="#d8d1c6" stroke-width="1"/>
<rect x="722" y="188" width="40" height="40" fill="none" stroke="#d8d1c6" stroke-width="1"/>
<text x="742" y="342" font-size="13" text-anchor="middle" fill="#1d1b18">m02</text>
<text x="742" y="362" font-size="11.5" text-anchor="middle" fill="#6b655c">other</text>
<text x="742" y="382" font-size="11.5" text-anchor="middle" fill="#2e6b3a">guess I ✓</text>
<text x="742" y="402" font-size="11.5" text-anchor="middle" fill="#6b655c">838 exact</text>
<rect x="794" y="280" width="40" height="40" fill="#4c6b2f" stroke="#4c6b2f" stroke-width="1"/>
<rect x="794" y="234" width="40" height="40" fill="none" stroke="#d8d1c6" stroke-width="1"/>
<rect x="794" y="188" width="40" height="40" fill="none" stroke="#d8d1c6" stroke-width="1"/>
<text x="814" y="342" font-size="13" text-anchor="middle" fill="#1d1b18">m09</text>
<text x="814" y="362" font-size="11.5" text-anchor="middle" fill="#6b655c">other</text>
<text x="814" y="382" font-size="11.5" text-anchor="middle" fill="#2e6b3a">guess I ✓</text>
<text x="814" y="402" font-size="11.5" text-anchor="middle" fill="#6b655c">834 exact</text>
<rect x="866" y="280" width="40" height="40" fill="none" stroke="#d8d1c6" stroke-width="1"/>
<rect x="866" y="234" width="40" height="40" fill="none" stroke="#d8d1c6" stroke-width="1"/>
<rect x="866" y="188" width="40" height="40" fill="none" stroke="#d8d1c6" stroke-width="1"/>
<text x="886" y="342" font-size="13" text-anchor="middle" fill="#1d1b18">m10</text>
<text x="886" y="362" font-size="11.5" text-anchor="middle" fill="#6b655c">other</text>
<text x="886" y="382" font-size="11.5" text-anchor="middle" fill="#9a2b2b">guess T</text>
<text x="886" y="402" font-size="11.5" text-anchor="middle" fill="#6b655c">742 exact</text>
<text x="30" y="436" font-size="12" fill="#6b655c">m04’s page throws a script error in a browser and shows nothing (coded 0). “exact”: of the 838 source values, how many the page carries exactly; for the plot arm, read back from the pixels.</text>
<text x="30" y="454" font-size="12" fill="#6b655c">The coder’s three right guesses in the plot arm came from captions saying the values were “read back from a plot”, not from the forms. Data: Aono &amp; Katata via Our World in Data, CC BY 4.0.</text>
</svg>